<svg width="102" height="69" viewBox="0 0 102 69" fill="none" xmlns="http://www.w3.org/2000/svg">
<path d="M83.726 14.683C82.1799 13.2049 81.0202 11.9589 78.8865 12.1195C76.8556 12.2725 76.622 14.8669 74.598 15.095C72.9154 15.2846 71.7653 14.905 70.45 13.84C69.0279 12.6886 69.7857 10.764 68.3256 9.66126C66.4079 8.21289 64.2844 8.30148 62.1735 9.45593C59.8856 10.7071 61.3251 14.0919 59.0463 15.3595C56.9327 16.5352 54.6808 13.6254 52.8601 15.2185C50.9265 16.9103 53.9629 19.6674 52.5109 21.7876C50.9334 24.091 48.0584 22.6604 45.848 24.3647C42.2385 27.1478 41.0582 30.4082 40.9556 34.9647C40.8719 38.6858 41.3773 41.2668 43.855 44.0385C45.96 46.3933 48.0845 49.0437 51.0006 47.8236C53.3988 46.8202 52.1144 43.5944 54.1187 41.9372C56.3638 40.0808 59.1012 41.9685 61.3463 40.1122C63.3507 38.455 61.9819 34.9959 64.4644 34.2258C67.5026 33.2833 70.5713 36.5549 70.4556 39.7356C70.3496 42.6507 66.8023 42.5641 65.0662 44.9094C63.5185 47.0001 65.177 47.2621 65.4887 49.8433C65.7462 51.9754 63.692 53.6784 65.1039 55.2941C67.1445 57.6293 68.1967 59.5714 71.1848 60.3997C74.8548 61.417 77.4037 59.9226 80.6055 57.8518C83.5326 55.9586 86.1097 54.5746 86.4552 51.1051C86.6504 49.145 84.1232 47.7868 85.2909 46.1999C86.3007 44.8276 88.2778 46.4006 89.5483 45.2658C91.7378 43.3103 89.393 40.5803 88.3082 37.8549C87.2896 35.2958 84.2919 34.7042 84.4514 31.9525C84.6144 29.1413 88.4022 29.1969 89.1511 26.4818C90.1866 22.7275 87.7628 20.4113 85.6206 17.1647C84.949 16.1469 84.6072 15.5255 83.726 14.683Z" fill="white"/>
<path d="M17.9342 54.8892C19.4802 56.3674 20.6399 57.6134 22.7736 57.4527C24.8045 57.2998 25.0382 54.7053 27.0622 54.4773C28.7447 54.2877 29.8948 54.6673 31.2102 55.7322C32.6322 56.8836 31.8744 58.8083 33.3345 59.911C35.2523 61.3594 37.3758 61.2708 39.4867 60.1163C41.7745 58.8651 40.335 55.4803 42.6138 54.2127C44.7274 53.0371 46.9794 55.9469 48.8001 54.3538C50.7337 52.662 47.6973 49.9049 49.1493 47.7847C50.7268 45.4813 50.0663 41.0935 52.2767 39.3892C55.8862 36.6061 60.6019 39.1641 60.7045 34.6076C60.7883 30.8865 60.2829 28.3054 57.8052 25.5338C55.7001 23.179 56.6653 24.18 53.7492 25.4002C51.3511 26.4036 49.5458 25.9779 47.5415 27.6351C45.2964 29.4914 42.0053 28.6977 39.7602 30.554C37.7558 32.2113 39.6782 34.5764 37.1958 35.3465C34.1575 36.289 31.0888 33.0174 31.2045 29.8367C31.3106 26.9215 34.8578 27.0082 36.5939 24.6629C38.1416 22.5722 36.4831 22.3101 36.1714 19.729C35.914 17.5968 37.9681 15.8938 36.5563 14.2782C34.5156 11.9429 33.4635 10.0009 30.4754 9.17261C26.8053 8.15528 24.2565 9.64964 21.0547 11.7205C18.1275 13.6137 15.5504 14.9976 15.205 18.4671C15.0098 20.4272 17.537 21.7855 16.3693 23.3724C15.3594 24.7446 13.3824 23.1717 12.1119 24.3064C9.9224 26.2619 12.2671 28.992 13.3519 31.7173C14.3705 34.2765 17.3682 34.8681 17.2087 37.6198C17.0458 40.431 13.2579 40.3753 12.509 43.0905C11.4735 46.8448 13.8974 49.161 16.0396 52.4076C16.7111 53.4254 17.053 54.0468 17.9342 54.8892Z" fill="white"/>
</svg>
